<mxfile host="app.diagrams.net" modified="2023-09-11T12:18:36.336Z" agent="Mozilla/5.0 (Windows NT 10.0; Win64; x64) AppleWebKit/537.36 (KHTML, like Gecko) Chrome/116.0.0.0 Safari/537.36 Edg/116.0.1938.76" etag="CfZb_p-pjBEo92pB_9Vg" version="21.7.4" type="github">
  <diagram name="第 1 页" id="uRwzhOS3v3pzjC3fNTbA">
    <mxGraphModel dx="-668" dy="505" grid="1" gridSize="10" guides="1" tooltips="1" connect="1" arrows="1" fold="1" page="1" pageScale="1" pageWidth="827" pageHeight="1169" math="0" shadow="0">
      <root>
        <mxCell id="0" />
        <mxCell id="1" parent="0" />
        <mxCell id="So5f6YOxrk0JaW00hDpZ-1" value="" style="rounded=1;whiteSpace=wrap;html=1;fillColor=#FFFDF7;strokeColor=#998080;" parent="1" vertex="1">
          <mxGeometry x="1733" y="52.5" width="240" height="327.5" as="geometry" />
        </mxCell>
        <mxCell id="So5f6YOxrk0JaW00hDpZ-2" value="Voice / unvoice&amp;nbsp;" style="rounded=1;whiteSpace=wrap;html=1;strokeColor=default;gradientColor=none;" parent="1" vertex="1">
          <mxGeometry x="2358.5" y="325" width="55" height="30" as="geometry" />
        </mxCell>
        <mxCell id="So5f6YOxrk0JaW00hDpZ-3" style="edgeStyle=orthogonalEdgeStyle;rounded=0;orthogonalLoop=1;jettySize=auto;html=1;exitX=1;exitY=0.5;exitDx=0;exitDy=0;entryX=0;entryY=0.5;entryDx=0;entryDy=0;entryPerimeter=0;exitPerimeter=0;fillColor=#fa6800;strokeColor=#C73500;" parent="1" source="So5f6YOxrk0JaW00hDpZ-52" target="So5f6YOxrk0JaW00hDpZ-54" edge="1">
          <mxGeometry relative="1" as="geometry" />
        </mxCell>
        <mxCell id="So5f6YOxrk0JaW00hDpZ-4" style="edgeStyle=orthogonalEdgeStyle;rounded=0;orthogonalLoop=1;jettySize=auto;html=1;exitX=0.5;exitY=1;exitDx=0;exitDy=0;entryX=0;entryY=0.5;entryDx=0;entryDy=0;fillColor=#a0522d;strokeColor=#6D1F00;" parent="1" source="So5f6YOxrk0JaW00hDpZ-5" target="So5f6YOxrk0JaW00hDpZ-41" edge="1">
          <mxGeometry relative="1" as="geometry" />
        </mxCell>
        <mxCell id="So5f6YOxrk0JaW00hDpZ-5" value="MASK&amp;nbsp;enhanced&amp;nbsp;&lt;br&gt;subband&amp;nbsp;waveforms&amp;nbsp;" style="rounded=1;whiteSpace=wrap;html=1;strokeColor=default;" parent="1" vertex="1">
          <mxGeometry x="1981.25" y="325" width="124" height="30" as="geometry" />
        </mxCell>
        <mxCell id="So5f6YOxrk0JaW00hDpZ-6" style="edgeStyle=orthogonalEdgeStyle;rounded=0;orthogonalLoop=1;jettySize=auto;html=1;exitX=0.5;exitY=1;exitDx=0;exitDy=0;entryX=0.5;entryY=0;entryDx=0;entryDy=0;fillColor=#dae8fc;strokeColor=#000000;" parent="1" source="So5f6YOxrk0JaW00hDpZ-7" target="So5f6YOxrk0JaW00hDpZ-9" edge="1">
          <mxGeometry relative="1" as="geometry" />
        </mxCell>
        <mxCell id="So5f6YOxrk0JaW00hDpZ-7" value="Conv2D &lt;br&gt;C=33 Kernel=5 x 7" style="rounded=0;whiteSpace=wrap;html=1;fillColor=#dae8fc;strokeColor=#6c8ebf;" parent="1" vertex="1">
          <mxGeometry x="1749.5" y="65" width="80" height="45" as="geometry" />
        </mxCell>
        <mxCell id="So5f6YOxrk0JaW00hDpZ-8" style="edgeStyle=orthogonalEdgeStyle;rounded=0;orthogonalLoop=1;jettySize=auto;html=1;exitX=0.5;exitY=1;exitDx=0;exitDy=0;entryX=0.5;entryY=0;entryDx=0;entryDy=0;fillColor=#dae8fc;strokeColor=#000000;" parent="1" source="So5f6YOxrk0JaW00hDpZ-9" target="So5f6YOxrk0JaW00hDpZ-11" edge="1">
          <mxGeometry relative="1" as="geometry" />
        </mxCell>
        <mxCell id="So5f6YOxrk0JaW00hDpZ-9" value="Conv2D&amp;nbsp;&lt;br&gt;C=33 x 2 Kernel=5 x 5" style="rounded=0;whiteSpace=wrap;html=1;fillColor=#dae8fc;strokeColor=#6c8ebf;" parent="1" vertex="1">
          <mxGeometry x="1749.5" y="135" width="80" height="45" as="geometry" />
        </mxCell>
        <mxCell id="So5f6YOxrk0JaW00hDpZ-10" style="edgeStyle=orthogonalEdgeStyle;rounded=0;orthogonalLoop=1;jettySize=auto;html=1;exitX=0.5;exitY=1;exitDx=0;exitDy=0;entryX=0.5;entryY=0;entryDx=0;entryDy=0;fillColor=#dae8fc;strokeColor=#000000;" parent="1" source="So5f6YOxrk0JaW00hDpZ-11" target="So5f6YOxrk0JaW00hDpZ-13" edge="1">
          <mxGeometry relative="1" as="geometry" />
        </mxCell>
        <mxCell id="So5f6YOxrk0JaW00hDpZ-11" value="Conv2D&amp;nbsp;&lt;br&gt;C=33 x 3 Kernel=5 x 2" style="rounded=0;whiteSpace=wrap;html=1;fillColor=#dae8fc;strokeColor=#6c8ebf;" parent="1" vertex="1">
          <mxGeometry x="1749.5" y="205" width="80" height="45" as="geometry" />
        </mxCell>
        <mxCell id="So5f6YOxrk0JaW00hDpZ-12" style="edgeStyle=orthogonalEdgeStyle;rounded=0;orthogonalLoop=1;jettySize=auto;html=1;exitX=0.5;exitY=1;exitDx=0;exitDy=0;entryX=0.5;entryY=0;entryDx=0;entryDy=0;fillColor=#dae8fc;strokeColor=#000000;" parent="1" edge="1">
          <mxGeometry relative="1" as="geometry">
            <mxPoint x="1789.5" y="685" as="sourcePoint" />
            <mxPoint x="1789.5" y="710" as="targetPoint" />
          </mxGeometry>
        </mxCell>
        <mxCell id="Bxru0Dd5hpozW6YSykWL-6" style="edgeStyle=orthogonalEdgeStyle;rounded=0;orthogonalLoop=1;jettySize=auto;html=1;exitX=0.5;exitY=1;exitDx=0;exitDy=0;entryX=0.5;entryY=1;entryDx=0;entryDy=0;" edge="1" parent="1" source="So5f6YOxrk0JaW00hDpZ-13" target="So5f6YOxrk0JaW00hDpZ-19">
          <mxGeometry relative="1" as="geometry">
            <Array as="points">
              <mxPoint x="1790" y="360" />
              <mxPoint x="1920" y="360" />
            </Array>
          </mxGeometry>
        </mxCell>
        <mxCell id="So5f6YOxrk0JaW00hDpZ-13" value="Conv2D&amp;nbsp;&lt;br&gt;C=33 x 4 Kernel=5 x 1" style="rounded=0;whiteSpace=wrap;html=1;fillColor=#dae8fc;strokeColor=#6c8ebf;" parent="1" vertex="1">
          <mxGeometry x="1749.5" y="275" width="80" height="45" as="geometry" />
        </mxCell>
        <mxCell id="So5f6YOxrk0JaW00hDpZ-16" style="edgeStyle=orthogonalEdgeStyle;rounded=0;orthogonalLoop=1;jettySize=auto;html=1;exitX=0.5;exitY=0;exitDx=0;exitDy=0;entryX=0.5;entryY=1;entryDx=0;entryDy=0;fillColor=#dae8fc;strokeColor=#000000;" parent="1" edge="1">
          <mxGeometry relative="1" as="geometry">
            <mxPoint x="1919.5" y="710" as="sourcePoint" />
            <mxPoint x="1919.5" y="685" as="targetPoint" />
          </mxGeometry>
        </mxCell>
        <mxCell id="So5f6YOxrk0JaW00hDpZ-18" style="edgeStyle=orthogonalEdgeStyle;rounded=0;orthogonalLoop=1;jettySize=auto;html=1;exitX=0.5;exitY=0;exitDx=0;exitDy=0;entryX=0.5;entryY=1;entryDx=0;entryDy=0;fillColor=#dae8fc;strokeColor=#000000;" parent="1" source="So5f6YOxrk0JaW00hDpZ-19" target="So5f6YOxrk0JaW00hDpZ-21" edge="1">
          <mxGeometry relative="1" as="geometry" />
        </mxCell>
        <mxCell id="So5f6YOxrk0JaW00hDpZ-19" value="Conv2D&amp;nbsp;&lt;br&gt;C=33 x 4 Kernel=5 x1" style="rounded=0;whiteSpace=wrap;html=1;fillColor=#dae8fc;strokeColor=#6c8ebf;" parent="1" vertex="1">
          <mxGeometry x="1879.5" y="275" width="80" height="45" as="geometry" />
        </mxCell>
        <mxCell id="So5f6YOxrk0JaW00hDpZ-20" style="edgeStyle=orthogonalEdgeStyle;rounded=0;orthogonalLoop=1;jettySize=auto;html=1;exitX=0.5;exitY=0;exitDx=0;exitDy=0;entryX=0.5;entryY=1;entryDx=0;entryDy=0;fillColor=#dae8fc;strokeColor=#000000;" parent="1" source="So5f6YOxrk0JaW00hDpZ-21" target="So5f6YOxrk0JaW00hDpZ-23" edge="1">
          <mxGeometry relative="1" as="geometry" />
        </mxCell>
        <mxCell id="So5f6YOxrk0JaW00hDpZ-21" value="Conv2D&amp;nbsp;&lt;br&gt;C=33 x 3 Kernel=5 x 2" style="rounded=0;whiteSpace=wrap;html=1;fillColor=#dae8fc;strokeColor=#6c8ebf;" parent="1" vertex="1">
          <mxGeometry x="1879.5" y="205" width="80" height="45" as="geometry" />
        </mxCell>
        <mxCell id="So5f6YOxrk0JaW00hDpZ-22" style="edgeStyle=orthogonalEdgeStyle;rounded=0;orthogonalLoop=1;jettySize=auto;html=1;exitX=0.5;exitY=0;exitDx=0;exitDy=0;entryX=0.5;entryY=1;entryDx=0;entryDy=0;fillColor=#dae8fc;strokeColor=#000000;" parent="1" source="So5f6YOxrk0JaW00hDpZ-23" target="So5f6YOxrk0JaW00hDpZ-28" edge="1">
          <mxGeometry relative="1" as="geometry" />
        </mxCell>
        <mxCell id="So5f6YOxrk0JaW00hDpZ-23" value="Conv2D&amp;nbsp;&lt;br&gt;C=33 x 2 Kernel=5 x 5" style="rounded=0;whiteSpace=wrap;html=1;fillColor=#dae8fc;strokeColor=#6c8ebf;" parent="1" vertex="1">
          <mxGeometry x="1879.5" y="135" width="80" height="45" as="geometry" />
        </mxCell>
        <mxCell id="So5f6YOxrk0JaW00hDpZ-24" style="edgeStyle=orthogonalEdgeStyle;rounded=0;orthogonalLoop=1;jettySize=auto;html=1;exitX=1;exitY=0.5;exitDx=0;exitDy=0;entryX=0.5;entryY=0;entryDx=0;entryDy=0;" parent="1" source="So5f6YOxrk0JaW00hDpZ-28" target="So5f6YOxrk0JaW00hDpZ-31" edge="1">
          <mxGeometry relative="1" as="geometry" />
        </mxCell>
        <mxCell id="So5f6YOxrk0JaW00hDpZ-25" style="edgeStyle=orthogonalEdgeStyle;rounded=0;orthogonalLoop=1;jettySize=auto;html=1;exitX=1;exitY=0.5;exitDx=0;exitDy=0;entryX=0.25;entryY=0;entryDx=0;entryDy=0;" parent="1" source="So5f6YOxrk0JaW00hDpZ-28" target="So5f6YOxrk0JaW00hDpZ-43" edge="1">
          <mxGeometry relative="1" as="geometry">
            <Array as="points">
              <mxPoint x="2142" y="88" />
            </Array>
          </mxGeometry>
        </mxCell>
        <mxCell id="So5f6YOxrk0JaW00hDpZ-26" style="edgeStyle=orthogonalEdgeStyle;rounded=0;orthogonalLoop=1;jettySize=auto;html=1;exitX=1;exitY=0.5;exitDx=0;exitDy=0;entryX=0.75;entryY=0;entryDx=0;entryDy=0;" parent="1" source="So5f6YOxrk0JaW00hDpZ-28" target="So5f6YOxrk0JaW00hDpZ-42" edge="1">
          <mxGeometry relative="1" as="geometry" />
        </mxCell>
        <mxCell id="So5f6YOxrk0JaW00hDpZ-27" style="edgeStyle=orthogonalEdgeStyle;rounded=0;orthogonalLoop=1;jettySize=auto;html=1;exitX=1;exitY=0.5;exitDx=0;exitDy=0;entryX=0.5;entryY=0;entryDx=0;entryDy=0;" parent="1" source="So5f6YOxrk0JaW00hDpZ-28" target="So5f6YOxrk0JaW00hDpZ-38" edge="1">
          <mxGeometry relative="1" as="geometry" />
        </mxCell>
        <mxCell id="So5f6YOxrk0JaW00hDpZ-28" value="Conv2D &lt;br&gt;C=33 Kernel=5 x 7" style="rounded=0;whiteSpace=wrap;html=1;fillColor=#dae8fc;strokeColor=#6c8ebf;" parent="1" vertex="1">
          <mxGeometry x="1879.5" y="65" width="80" height="45" as="geometry" />
        </mxCell>
        <mxCell id="So5f6YOxrk0JaW00hDpZ-29" style="edgeStyle=orthogonalEdgeStyle;rounded=0;orthogonalLoop=1;jettySize=auto;html=1;exitX=0.5;exitY=1;exitDx=0;exitDy=0;entryX=0.5;entryY=0;entryDx=0;entryDy=0;" parent="1" source="So5f6YOxrk0JaW00hDpZ-30" target="So5f6YOxrk0JaW00hDpZ-7" edge="1">
          <mxGeometry relative="1" as="geometry" />
        </mxCell>
        <mxCell id="So5f6YOxrk0JaW00hDpZ-30" value="Gammatone Feature" style="rounded=1;whiteSpace=wrap;html=1;" parent="1" vertex="1">
          <mxGeometry x="1752" y="9.999999999999993" width="75" height="31.25" as="geometry" />
        </mxCell>
        <mxCell id="So5f6YOxrk0JaW00hDpZ-31" value="FC 33" style="rounded=0;whiteSpace=wrap;html=1;fillColor=#ffe6cc;strokeColor=#d79b00;" parent="1" vertex="1">
          <mxGeometry x="2012.5" y="120.5" width="61.5" height="30" as="geometry" />
        </mxCell>
        <mxCell id="So5f6YOxrk0JaW00hDpZ-32" style="edgeStyle=orthogonalEdgeStyle;rounded=0;orthogonalLoop=1;jettySize=auto;html=1;exitX=0.5;exitY=1;exitDx=0;exitDy=0;entryX=0.5;entryY=0;entryDx=0;entryDy=0;entryPerimeter=0;" parent="1" source="So5f6YOxrk0JaW00hDpZ-33" target="So5f6YOxrk0JaW00hDpZ-52" edge="1">
          <mxGeometry relative="1" as="geometry" />
        </mxCell>
        <mxCell id="So5f6YOxrk0JaW00hDpZ-33" value="MASK" style="rounded=1;whiteSpace=wrap;html=1;" parent="1" vertex="1">
          <mxGeometry x="2021.25" y="200" width="44" height="30" as="geometry" />
        </mxCell>
        <mxCell id="So5f6YOxrk0JaW00hDpZ-34" style="edgeStyle=orthogonalEdgeStyle;rounded=0;orthogonalLoop=1;jettySize=auto;html=1;exitX=0.5;exitY=1;exitDx=0;exitDy=0;entryX=0.5;entryY=0;entryDx=0;entryDy=0;entryPerimeter=0;fillColor=#fa6800;strokeColor=#C73500;" parent="1" source="So5f6YOxrk0JaW00hDpZ-35" target="So5f6YOxrk0JaW00hDpZ-54" edge="1">
          <mxGeometry relative="1" as="geometry">
            <Array as="points">
              <mxPoint x="2158" y="250" />
              <mxPoint x="2158" y="250" />
            </Array>
          </mxGeometry>
        </mxCell>
        <mxCell id="So5f6YOxrk0JaW00hDpZ-35" value="Enhanced&amp;nbsp;&lt;br style=&quot;border-color: var(--border-color);&quot;&gt;subband weight" style="rounded=1;whiteSpace=wrap;html=1;" parent="1" vertex="1">
          <mxGeometry x="2110.5" y="193.13" width="95" height="43.75" as="geometry" />
        </mxCell>
        <mxCell id="So5f6YOxrk0JaW00hDpZ-36" style="edgeStyle=orthogonalEdgeStyle;rounded=0;orthogonalLoop=1;jettySize=auto;html=1;exitX=0.5;exitY=1;exitDx=0;exitDy=0;entryX=0.5;entryY=0;entryDx=0;entryDy=0;entryPerimeter=0;fillColor=#fa6800;strokeColor=#C73500;" parent="1" source="So5f6YOxrk0JaW00hDpZ-37" target="So5f6YOxrk0JaW00hDpZ-56" edge="1">
          <mxGeometry relative="1" as="geometry" />
        </mxCell>
        <mxCell id="So5f6YOxrk0JaW00hDpZ-37" value="Comb-filter&amp;nbsp;enhanced&lt;br style=&quot;border-color: var(--border-color);&quot;&gt;subband weight" style="rounded=1;whiteSpace=wrap;html=1;" parent="1" vertex="1">
          <mxGeometry x="2215" y="193.13" width="114" height="43.75" as="geometry" />
        </mxCell>
        <mxCell id="So5f6YOxrk0JaW00hDpZ-38" value="FC 1" style="rounded=0;whiteSpace=wrap;html=1;fillColor=#ffe6cc;strokeColor=#d79b00;" parent="1" vertex="1">
          <mxGeometry x="2356" y="120.5" width="60" height="30" as="geometry" />
        </mxCell>
        <mxCell id="So5f6YOxrk0JaW00hDpZ-39" style="edgeStyle=orthogonalEdgeStyle;rounded=0;orthogonalLoop=1;jettySize=auto;html=1;exitX=0.5;exitY=1;exitDx=0;exitDy=0;entryX=0.5;entryY=0;entryDx=0;entryDy=0;" parent="1" source="So5f6YOxrk0JaW00hDpZ-40" target="So5f6YOxrk0JaW00hDpZ-2" edge="1">
          <mxGeometry relative="1" as="geometry" />
        </mxCell>
        <mxCell id="So5f6YOxrk0JaW00hDpZ-40" value="Pitch" style="rounded=1;whiteSpace=wrap;html=1;" parent="1" vertex="1">
          <mxGeometry x="2364" y="200" width="44" height="30" as="geometry" />
        </mxCell>
        <mxCell id="zfUCld9dnQJhKxiVzWwo-2" style="edgeStyle=orthogonalEdgeStyle;rounded=0;orthogonalLoop=1;jettySize=auto;html=1;exitX=0.5;exitY=1;exitDx=0;exitDy=0;entryX=0.5;entryY=0;entryDx=0;entryDy=0;" parent="1" source="So5f6YOxrk0JaW00hDpZ-41" target="zfUCld9dnQJhKxiVzWwo-1" edge="1">
          <mxGeometry relative="1" as="geometry" />
        </mxCell>
        <mxCell id="So5f6YOxrk0JaW00hDpZ-41" value="Harmonic&amp;nbsp;&lt;br&gt;compensated waveforms" style="rounded=1;whiteSpace=wrap;html=1;strokeColor=default;" parent="1" vertex="1">
          <mxGeometry x="2146" y="370" width="139" height="30" as="geometry" />
        </mxCell>
        <mxCell id="So5f6YOxrk0JaW00hDpZ-42" value="FC 33" style="rounded=0;whiteSpace=wrap;html=1;fillColor=#ffe6cc;strokeColor=#d79b00;" parent="1" vertex="1">
          <mxGeometry x="2242" y="120.5" width="60" height="30" as="geometry" />
        </mxCell>
        <mxCell id="So5f6YOxrk0JaW00hDpZ-43" value="FC 33" style="rounded=0;whiteSpace=wrap;html=1;fillColor=#ffe6cc;strokeColor=#d79b00;" parent="1" vertex="1">
          <mxGeometry x="2126" y="120.5" width="63" height="30" as="geometry" />
        </mxCell>
        <mxCell id="So5f6YOxrk0JaW00hDpZ-44" style="edgeStyle=orthogonalEdgeStyle;rounded=0;orthogonalLoop=1;jettySize=auto;html=1;exitX=0.25;exitY=1;exitDx=0;exitDy=0;entryX=0.75;entryY=0;entryDx=0;entryDy=0;" parent="1" source="So5f6YOxrk0JaW00hDpZ-46" target="So5f6YOxrk0JaW00hDpZ-43" edge="1">
          <mxGeometry relative="1" as="geometry">
            <Array as="points">
              <mxPoint x="2174" y="40" />
            </Array>
          </mxGeometry>
        </mxCell>
        <mxCell id="So5f6YOxrk0JaW00hDpZ-45" style="edgeStyle=orthogonalEdgeStyle;rounded=0;orthogonalLoop=1;jettySize=auto;html=1;exitX=0.75;exitY=1;exitDx=0;exitDy=0;entryX=0.25;entryY=0;entryDx=0;entryDy=0;" parent="1" source="So5f6YOxrk0JaW00hDpZ-46" target="So5f6YOxrk0JaW00hDpZ-42" edge="1">
          <mxGeometry relative="1" as="geometry">
            <mxPoint x="2256" y="140" as="targetPoint" />
            <Array as="points">
              <mxPoint x="2257" y="40" />
            </Array>
          </mxGeometry>
        </mxCell>
        <mxCell id="So5f6YOxrk0JaW00hDpZ-46" value="MASK&amp;nbsp;enhanced&amp;nbsp;&lt;br style=&quot;border-color: var(--border-color);&quot;&gt;subband&amp;nbsp;feature" style="rounded=1;whiteSpace=wrap;html=1;" parent="1" vertex="1">
          <mxGeometry x="2153" y="9.999999999999993" width="130" height="30" as="geometry" />
        </mxCell>
        <mxCell id="So5f6YOxrk0JaW00hDpZ-47" style="edgeStyle=orthogonalEdgeStyle;rounded=0;orthogonalLoop=1;jettySize=auto;html=1;exitX=0.5;exitY=1;exitDx=0;exitDy=0;entryX=0;entryY=0.5;entryDx=0;entryDy=0;entryPerimeter=0;" parent="1" source="So5f6YOxrk0JaW00hDpZ-48" target="So5f6YOxrk0JaW00hDpZ-52" edge="1">
          <mxGeometry relative="1" as="geometry" />
        </mxCell>
        <mxCell id="So5f6YOxrk0JaW00hDpZ-48" value="Noisy speech subband&amp;nbsp;waveforms&amp;nbsp;" style="rounded=1;whiteSpace=wrap;html=1;strokeColor=default;" parent="1" vertex="1">
          <mxGeometry x="1931" y="9.999999999999993" width="124" height="30" as="geometry" />
        </mxCell>
        <mxCell id="So5f6YOxrk0JaW00hDpZ-49" style="edgeStyle=orthogonalEdgeStyle;rounded=0;orthogonalLoop=1;jettySize=auto;html=1;exitX=0.5;exitY=1;exitDx=0;exitDy=0;entryX=1;entryY=0.5;entryDx=0;entryDy=0;entryPerimeter=0;fillColor=#fa6800;strokeColor=#C73500;" parent="1" source="So5f6YOxrk0JaW00hDpZ-50" target="So5f6YOxrk0JaW00hDpZ-56" edge="1">
          <mxGeometry relative="1" as="geometry">
            <mxPoint x="2301" y="275" as="targetPoint" />
            <Array as="points">
              <mxPoint x="2351" y="40" />
              <mxPoint x="2351" y="275" />
            </Array>
          </mxGeometry>
        </mxCell>
        <mxCell id="So5f6YOxrk0JaW00hDpZ-50" value="Comb-filter enhanced&lt;br&gt;&amp;nbsp;subband&amp;nbsp;waveforms&amp;nbsp;" style="rounded=1;whiteSpace=wrap;html=1;strokeColor=default;" parent="1" vertex="1">
          <mxGeometry x="2302" y="9.999999999999993" width="124" height="30" as="geometry" />
        </mxCell>
        <mxCell id="So5f6YOxrk0JaW00hDpZ-51" style="edgeStyle=orthogonalEdgeStyle;rounded=0;orthogonalLoop=1;jettySize=auto;html=1;exitX=0.5;exitY=1;exitDx=0;exitDy=0;exitPerimeter=0;entryX=0.5;entryY=0;entryDx=0;entryDy=0;" parent="1" source="So5f6YOxrk0JaW00hDpZ-52" target="So5f6YOxrk0JaW00hDpZ-5" edge="1">
          <mxGeometry relative="1" as="geometry" />
        </mxCell>
        <mxCell id="So5f6YOxrk0JaW00hDpZ-52" value="" style="verticalLabelPosition=bottom;verticalAlign=top;html=1;shape=mxgraph.flowchart.or;" parent="1" vertex="1">
          <mxGeometry x="2029.25" y="261" width="28" height="28" as="geometry" />
        </mxCell>
        <mxCell id="So5f6YOxrk0JaW00hDpZ-53" style="edgeStyle=orthogonalEdgeStyle;rounded=0;orthogonalLoop=1;jettySize=auto;html=1;exitX=0.5;exitY=1;exitDx=0;exitDy=0;exitPerimeter=0;entryX=0.5;entryY=0;entryDx=0;entryDy=0;fillColor=#fa6800;strokeColor=#C73500;" parent="1" source="So5f6YOxrk0JaW00hDpZ-54" target="So5f6YOxrk0JaW00hDpZ-41" edge="1">
          <mxGeometry relative="1" as="geometry" />
        </mxCell>
        <mxCell id="So5f6YOxrk0JaW00hDpZ-54" value="" style="verticalLabelPosition=bottom;verticalAlign=top;html=1;shape=mxgraph.flowchart.or;" parent="1" vertex="1">
          <mxGeometry x="2144" y="261" width="28" height="28" as="geometry" />
        </mxCell>
        <mxCell id="So5f6YOxrk0JaW00hDpZ-55" style="edgeStyle=orthogonalEdgeStyle;rounded=0;orthogonalLoop=1;jettySize=auto;html=1;exitX=0.5;exitY=1;exitDx=0;exitDy=0;exitPerimeter=0;entryX=0.5;entryY=0;entryDx=0;entryDy=0;fillColor=#fa6800;strokeColor=#C73500;" parent="1" source="So5f6YOxrk0JaW00hDpZ-56" target="So5f6YOxrk0JaW00hDpZ-41" edge="1">
          <mxGeometry relative="1" as="geometry" />
        </mxCell>
        <mxCell id="So5f6YOxrk0JaW00hDpZ-56" value="" style="verticalLabelPosition=bottom;verticalAlign=top;html=1;shape=mxgraph.flowchart.or;" parent="1" vertex="1">
          <mxGeometry x="2258" y="261" width="28" height="28" as="geometry" />
        </mxCell>
        <mxCell id="So5f6YOxrk0JaW00hDpZ-80" style="edgeStyle=orthogonalEdgeStyle;rounded=0;orthogonalLoop=1;jettySize=auto;html=1;exitX=0.5;exitY=1;exitDx=0;exitDy=0;entryX=0.5;entryY=0;entryDx=0;entryDy=0;" parent="1" source="So5f6YOxrk0JaW00hDpZ-81" target="So5f6YOxrk0JaW00hDpZ-33" edge="1">
          <mxGeometry relative="1" as="geometry" />
        </mxCell>
        <mxCell id="So5f6YOxrk0JaW00hDpZ-81" value="" style="rounded=0;whiteSpace=wrap;html=1;fillColor=#e1d5e7;strokeColor=#9673a6;" parent="1" vertex="1">
          <mxGeometry x="2012.5" y="152.5" width="61.5" height="7.5" as="geometry" />
        </mxCell>
        <mxCell id="So5f6YOxrk0JaW00hDpZ-82" style="edgeStyle=orthogonalEdgeStyle;rounded=0;orthogonalLoop=1;jettySize=auto;html=1;exitX=0.5;exitY=1;exitDx=0;exitDy=0;entryX=0.5;entryY=0;entryDx=0;entryDy=0;" parent="1" source="So5f6YOxrk0JaW00hDpZ-83" target="So5f6YOxrk0JaW00hDpZ-35" edge="1">
          <mxGeometry relative="1" as="geometry" />
        </mxCell>
        <mxCell id="So5f6YOxrk0JaW00hDpZ-83" value="" style="rounded=0;whiteSpace=wrap;html=1;fillColor=#e1d5e7;strokeColor=#9673a6;" parent="1" vertex="1">
          <mxGeometry x="2126" y="152.5" width="63" height="7.25" as="geometry" />
        </mxCell>
        <mxCell id="So5f6YOxrk0JaW00hDpZ-84" style="edgeStyle=orthogonalEdgeStyle;rounded=0;orthogonalLoop=1;jettySize=auto;html=1;exitX=0.5;exitY=1;exitDx=0;exitDy=0;entryX=0.5;entryY=0;entryDx=0;entryDy=0;" parent="1" source="So5f6YOxrk0JaW00hDpZ-85" target="So5f6YOxrk0JaW00hDpZ-37" edge="1">
          <mxGeometry relative="1" as="geometry" />
        </mxCell>
        <mxCell id="So5f6YOxrk0JaW00hDpZ-85" value="" style="rounded=0;whiteSpace=wrap;html=1;fillColor=#e1d5e7;strokeColor=#9673a6;" parent="1" vertex="1">
          <mxGeometry x="2242" y="152.5" width="60" height="7.5" as="geometry" />
        </mxCell>
        <mxCell id="So5f6YOxrk0JaW00hDpZ-86" style="edgeStyle=orthogonalEdgeStyle;rounded=0;orthogonalLoop=1;jettySize=auto;html=1;exitX=0.5;exitY=1;exitDx=0;exitDy=0;entryX=0.5;entryY=0;entryDx=0;entryDy=0;" parent="1" source="So5f6YOxrk0JaW00hDpZ-87" target="So5f6YOxrk0JaW00hDpZ-40" edge="1">
          <mxGeometry relative="1" as="geometry" />
        </mxCell>
        <mxCell id="So5f6YOxrk0JaW00hDpZ-87" value="&amp;nbsp;" style="rounded=0;whiteSpace=wrap;html=1;fillColor=#e1d5e7;strokeColor=#9673a6;" parent="1" vertex="1">
          <mxGeometry x="2356" y="152.5" width="60" height="7.5" as="geometry" />
        </mxCell>
        <mxCell id="So5f6YOxrk0JaW00hDpZ-95" value="" style="shape=waypoint;sketch=0;fillStyle=solid;size=6;pointerEvents=1;points=[];fillColor=none;resizable=0;rotatable=0;perimeter=centerPerimeter;snapToPoint=1;" parent="1" vertex="1">
          <mxGeometry x="2033" y="77" width="20" height="20" as="geometry" />
        </mxCell>
        <mxCell id="So5f6YOxrk0JaW00hDpZ-96" value="" style="shape=waypoint;sketch=0;fillStyle=solid;size=6;pointerEvents=1;points=[];fillColor=none;resizable=0;rotatable=0;perimeter=centerPerimeter;snapToPoint=1;" parent="1" vertex="1">
          <mxGeometry x="2132" y="77" width="20" height="20" as="geometry" />
        </mxCell>
        <mxCell id="So5f6YOxrk0JaW00hDpZ-97" value="" style="shape=waypoint;sketch=0;fillStyle=solid;size=6;pointerEvents=1;points=[];fillColor=none;resizable=0;rotatable=0;perimeter=centerPerimeter;snapToPoint=1;" parent="1" vertex="1">
          <mxGeometry x="2277" y="77" width="20" height="20" as="geometry" />
        </mxCell>
        <mxCell id="zfUCld9dnQJhKxiVzWwo-1" value="Post-processing" style="rounded=1;whiteSpace=wrap;html=1;strokeColor=#82b366;fillColor=#d5e8d4;" parent="1" vertex="1">
          <mxGeometry x="2163.5" y="420" width="104" height="30" as="geometry" />
        </mxCell>
        <mxCell id="So5f6YOxrk0JaW00hDpZ-57" value="" style="group" parent="1" vertex="1" connectable="0">
          <mxGeometry x="1884.75" y="468" width="110" height="55" as="geometry" />
        </mxCell>
        <mxCell id="So5f6YOxrk0JaW00hDpZ-58" value="" style="rounded=0;whiteSpace=wrap;html=1;fillColor=#dae8fc;strokeColor=#6c8ebf;" parent="So5f6YOxrk0JaW00hDpZ-57" vertex="1">
          <mxGeometry x="45" width="20" height="20" as="geometry" />
        </mxCell>
        <mxCell id="So5f6YOxrk0JaW00hDpZ-59" value="2D&amp;nbsp;Convolutional&amp;nbsp;Neural&amp;nbsp;Network" style="rounded=0;whiteSpace=wrap;html=1;strokeColor=none;fillColor=none;" parent="So5f6YOxrk0JaW00hDpZ-57" vertex="1">
          <mxGeometry y="25" width="110" height="30" as="geometry" />
        </mxCell>
        <mxCell id="So5f6YOxrk0JaW00hDpZ-60" value="" style="group;fillColor=none;" parent="1" vertex="1" connectable="0">
          <mxGeometry x="2072.5" y="468" width="110" height="55" as="geometry" />
        </mxCell>
        <mxCell id="So5f6YOxrk0JaW00hDpZ-61" value="" style="rounded=0;whiteSpace=wrap;html=1;fillColor=#ffe6cc;strokeColor=#d79b00;" parent="So5f6YOxrk0JaW00hDpZ-60" vertex="1">
          <mxGeometry x="45" width="20" height="20" as="geometry" />
        </mxCell>
        <mxCell id="So5f6YOxrk0JaW00hDpZ-62" value="Fully&amp;nbsp;Connected&amp;nbsp;Neural&amp;nbsp;Network" style="rounded=0;whiteSpace=wrap;html=1;strokeColor=none;fillColor=none;" parent="So5f6YOxrk0JaW00hDpZ-60" vertex="1">
          <mxGeometry y="25" width="110" height="30" as="geometry" />
        </mxCell>
        <mxCell id="So5f6YOxrk0JaW00hDpZ-63" value="" style="group" parent="1" vertex="1" connectable="0">
          <mxGeometry x="2187" y="468" width="150" height="53.75" as="geometry" />
        </mxCell>
        <mxCell id="So5f6YOxrk0JaW00hDpZ-64" value="C-ED&amp;nbsp;model" style="rounded=0;whiteSpace=wrap;html=1;strokeColor=none;fillColor=none;" parent="So5f6YOxrk0JaW00hDpZ-63" vertex="1">
          <mxGeometry y="27.5" width="150" height="26.25" as="geometry" />
        </mxCell>
        <mxCell id="So5f6YOxrk0JaW00hDpZ-65" value="" style="rounded=1;whiteSpace=wrap;html=1;fillColor=#fffdf7;strokeColor=#998080;fontColor=#ffffff;" parent="So5f6YOxrk0JaW00hDpZ-63" vertex="1">
          <mxGeometry x="65" width="20" height="20" as="geometry" />
        </mxCell>
        <mxCell id="So5f6YOxrk0JaW00hDpZ-70" value="" style="endArrow=classic;html=1;rounded=0;fillColor=#fa6800;strokeColor=#C73500;" parent="1" edge="1">
          <mxGeometry width="50" height="50" relative="1" as="geometry">
            <mxPoint x="2333.5" y="475.5" as="sourcePoint" />
            <mxPoint x="2383.5" y="475.5" as="targetPoint" />
          </mxGeometry>
        </mxCell>
        <mxCell id="So5f6YOxrk0JaW00hDpZ-71" value="Voice&amp;nbsp;processing" style="rounded=0;whiteSpace=wrap;html=1;strokeColor=none;fillColor=none;" parent="1" vertex="1">
          <mxGeometry x="2284" y="495.5" width="150" height="26.25" as="geometry" />
        </mxCell>
        <mxCell id="So5f6YOxrk0JaW00hDpZ-75" value="" style="group" parent="1" vertex="1" connectable="0">
          <mxGeometry x="1897" y="546.13" width="150" height="47.370000000000005" as="geometry" />
        </mxCell>
        <mxCell id="So5f6YOxrk0JaW00hDpZ-76" value="Unvoice&amp;nbsp;processing" style="rounded=0;whiteSpace=wrap;html=1;strokeColor=none;fillColor=none;" parent="So5f6YOxrk0JaW00hDpZ-75" vertex="1">
          <mxGeometry y="20.49000000000001" width="150" height="26.25" as="geometry" />
        </mxCell>
        <mxCell id="So5f6YOxrk0JaW00hDpZ-77" value="" style="endArrow=classic;html=1;rounded=0;fillColor=#a0522d;strokeColor=#6D1F00;" parent="So5f6YOxrk0JaW00hDpZ-75" edge="1">
          <mxGeometry width="50" height="50" relative="1" as="geometry">
            <mxPoint x="45" as="sourcePoint" />
            <mxPoint x="95" y="0.12000000000000455" as="targetPoint" />
          </mxGeometry>
        </mxCell>
        <mxCell id="So5f6YOxrk0JaW00hDpZ-78" value="" style="verticalLabelPosition=bottom;verticalAlign=top;html=1;shape=mxgraph.flowchart.or;" parent="1" vertex="1">
          <mxGeometry x="2091.25" y="535.12" width="28" height="28" as="geometry" />
        </mxCell>
        <mxCell id="So5f6YOxrk0JaW00hDpZ-79" value="Multiply" style="rounded=0;whiteSpace=wrap;html=1;strokeColor=none;fillColor=none;" parent="1" vertex="1">
          <mxGeometry x="2030.25" y="566.62" width="150" height="26.25" as="geometry" />
        </mxCell>
        <mxCell id="So5f6YOxrk0JaW00hDpZ-88" value="" style="rounded=0;whiteSpace=wrap;html=1;fillColor=#e1d5e7;strokeColor=#9673a6;" parent="1" vertex="1">
          <mxGeometry x="2178.5" y="545.5" width="63" height="7.25" as="geometry" />
        </mxCell>
        <mxCell id="So5f6YOxrk0JaW00hDpZ-89" value="Sigmoid" style="rounded=0;whiteSpace=wrap;html=1;strokeColor=none;fillColor=none;" parent="1" vertex="1">
          <mxGeometry x="2134" y="566.62" width="150" height="26.25" as="geometry" />
        </mxCell>
        <mxCell id="So5f6YOxrk0JaW00hDpZ-68" value="" style="rounded=1;whiteSpace=wrap;html=1;fillColor=#FFFFFF;strokeColor=#000000;" parent="1" vertex="1">
          <mxGeometry x="1779" y="468" width="20" height="20" as="geometry" />
        </mxCell>
        <mxCell id="So5f6YOxrk0JaW00hDpZ-93" value="Sequential flow" style="rounded=0;whiteSpace=wrap;html=1;strokeColor=none;fillColor=none;" parent="1" vertex="1">
          <mxGeometry x="1763" y="566.62" width="150" height="26.25" as="geometry" />
        </mxCell>
        <mxCell id="So5f6YOxrk0JaW00hDpZ-94" value="" style="endArrow=classic;html=1;rounded=0;fillColor=#a0522d;strokeColor=#000000;" parent="1" edge="1">
          <mxGeometry width="50" height="50" relative="1" as="geometry">
            <mxPoint x="1808" y="545.5" as="sourcePoint" />
            <mxPoint x="1858" y="545.62" as="targetPoint" />
          </mxGeometry>
        </mxCell>
        <mxCell id="So5f6YOxrk0JaW00hDpZ-67" value="Different&amp;nbsp;features" style="rounded=0;whiteSpace=wrap;html=1;strokeColor=none;fillColor=none;" parent="1" vertex="1">
          <mxGeometry x="1718" y="495.5" width="140" height="26.25" as="geometry" />
        </mxCell>
        <mxCell id="zfUCld9dnQJhKxiVzWwo-4" value="" style="rounded=1;whiteSpace=wrap;html=1;fillColor=#d5e8d4;strokeColor=#82b366;" parent="1" vertex="1">
          <mxGeometry x="2327" y="535.12" width="20" height="20" as="geometry" />
        </mxCell>
        <mxCell id="zfUCld9dnQJhKxiVzWwo-5" value="Post-processing" style="rounded=0;whiteSpace=wrap;html=1;strokeColor=none;fillColor=none;" parent="1" vertex="1">
          <mxGeometry x="2267" y="566.62" width="140" height="26.25" as="geometry" />
        </mxCell>
        <mxCell id="Bxru0Dd5hpozW6YSykWL-1" style="edgeStyle=orthogonalEdgeStyle;rounded=0;orthogonalLoop=1;jettySize=auto;html=1;exitX=0.5;exitY=1;exitDx=0;exitDy=0;entryX=0.5;entryY=1;entryDx=0;entryDy=0;" edge="1" parent="1" source="Bxru0Dd5hpozW6YSykWL-2" target="Bxru0Dd5hpozW6YSykWL-3">
          <mxGeometry relative="1" as="geometry" />
        </mxCell>
        <mxCell id="Bxru0Dd5hpozW6YSykWL-2" value="Conv2D&amp;nbsp;&lt;br&gt;C=33 x 4 Kernel=5 x 1" style="rounded=0;whiteSpace=wrap;html=1;fillColor=#dae8fc;strokeColor=#6c8ebf;" vertex="1" parent="1">
          <mxGeometry x="1843" y="970" width="80" height="45" as="geometry" />
        </mxCell>
        <mxCell id="Bxru0Dd5hpozW6YSykWL-3" value="Conv2D&amp;nbsp;&lt;br&gt;C=33 x 4 Kernel=5 x 1" style="rounded=0;whiteSpace=wrap;html=1;fillColor=#dae8fc;strokeColor=#6c8ebf;" vertex="1" parent="1">
          <mxGeometry x="1973" y="970" width="80" height="45" as="geometry" />
        </mxCell>
        <mxCell id="Bxru0Dd5hpozW6YSykWL-5" style="edgeStyle=orthogonalEdgeStyle;rounded=0;orthogonalLoop=1;jettySize=auto;html=1;exitX=0.5;exitY=1;exitDx=0;exitDy=0;entryX=0.5;entryY=1;entryDx=0;entryDy=0;" edge="1" parent="1">
          <mxGeometry relative="1" as="geometry">
            <mxPoint x="1893" y="1025" as="sourcePoint" />
            <mxPoint x="2023" y="1025" as="targetPoint" />
          </mxGeometry>
        </mxCell>
      </root>
    </mxGraphModel>
  </diagram>
</mxfile>
